<?xml version="1.0" encoding="UTF-8"?>
<svg width="563px" height="429px" viewBox="0 0 563 429" version="1.1" xmlns="http://www.w3.org/2000/svg" xmlns:xlink="http://www.w3.org/1999/xlink">
    <!-- Generator: Sketch 52.5 (67469) - http://www.bohemiancoding.com/sketch -->
    <title>Group 3</title>
    <desc>Created with Sketch.</desc>
    <g id="Enterprise" stroke="none" stroke-width="1" fill="none" fill-rule="evenodd">
        <g id="sms-rebrandly-v0.0.3" transform="translate(-902.000000, -218.000000)">
            <g id="Group-3" transform="translate(897.000000, 218.000000)">
                <g id="Group-16" transform="translate(5.000000, 0.000000)">
                    <g id="Group-61">
                        <path d="M1.85464625,234.913511 C41.9963489,126.040218 110.355023,71.5720129 206.930667,71.5088947 C351.794134,71.4142175 498.322699,147.311007 520.801513,230.6996 C543.280327,314.088194 514.973672,385.614765 445.872133,380.333566 C376.770594,375.052367 329.231721,336.534979 251.888295,327.521578 C174.544869,318.508178 75.0319451,360.969171 33.570668,326.641378 C5.92981653,303.756184 -4.64219071,273.180228 1.85464625,234.913511 Z" id="Path-4" fill="#F5F6F8" opacity="0.886300223"></path>
                        <g id="Mobile3" transform="translate(260.000000, 31.000000)">
                            <rect id="Container" fill="#DDE3E9" x="0" y="0" width="189.536424" height="360" rx="8"></rect>
                            <circle id="Touch" fill="#FFFFFF" cx="94.1721854" cy="319.470199" r="15"></circle>
                            <g id="Camera" transform="translate(79.172185, 19.456954)" fill="#FFFFFF">
                                <circle id="Lens" cx="2" cy="2" r="2"></circle>
                                <rect id="Sensor" x="9" y="0" width="21" height="4" rx="2"></rect>
                            </g>
                            <g id="Rows" transform="translate(14.000000, 37.000000)">
                                <g id="Row" transform="translate(0.000000, 207.000000)">
                                    <path d="M4,-1.10489395e-12 L157,-1.11377574e-12 C159.209139,-1.12987843e-12 161,1.790861 161,4 L161,47 C161,49.209139 159.209139,51 157,51 L11.4852495,51 L-2.28794761e-12,51.4325518 L-2.28794761e-12,4 C-2.28821815e-12,1.790861 1.790861,-1.10448814e-12 4,-1.10489395e-12 Z" id="Background" fill="#FFFFFF"></path>
                                    <g id="Text" transform="translate(39.000000, 15.300000)">
                                        <rect id="Name" fill="#DDE3E9" x="0" y="0" width="103" height="7.65" rx="3"></rect>
                                        <path d="M4.896,22.4999997 L0.852,22.4999997 L0.852,14.4959997 L4.788,14.4959997 C5.50000356,14.4959997 6.05799798,14.6899978 6.462,15.0779997 C6.86600202,15.4660017 7.068,15.9519968 7.068,16.5359997 C7.068,17.0160021 6.93400134,17.4219981 6.666,17.7539997 C6.39799866,18.0860014 6.06800196,18.2919993 5.676,18.3719997 C6.10800216,18.436 6.4739985,18.6579978 6.774,19.0379997 C7.0740015,19.4180016 7.224,19.8519973 7.224,20.3399997 C7.224,20.9800029 7.01800206,21.4999977 6.606,21.8999997 C6.19399794,22.3000017 5.62400364,22.4999997 4.896,22.4999997 Z M4.5,17.8079997 C4.85200176,17.8079997 5.127999,17.7120007 5.328,17.5199997 C5.528001,17.3279988 5.628,17.0800012 5.628,16.7759997 C5.628,16.4639982 5.528001,16.2120007 5.328,16.0199997 C5.127999,15.8279988 4.85200176,15.7319997 4.5,15.7319997 L2.256,15.7319997 L2.256,17.8079997 L4.5,17.8079997 Z M4.56,21.2639997 C4.94400192,21.2639997 5.24399892,21.1660007 5.46,20.9699997 C5.67600108,20.7739987 5.784,20.5000015 5.784,20.1479997 C5.784,19.8359982 5.67600108,19.5740008 5.46,19.3619997 C5.24399892,19.1499987 4.94400192,19.0439997 4.56,19.0439997 L2.256,19.0439997 L2.256,21.2639997 L4.56,21.2639997 Z M9.77200002,22.4999997 L8.51200002,22.4999997 L8.51200002,16.7039997 L9.77200002,16.7039997 L9.77200002,17.5559997 C9.99600114,17.2679983 10.2759983,17.0320006 10.612,16.8479997 C10.9480017,16.6639988 11.2959982,16.5719997 11.656,16.5719997 L11.656,17.8199997 C11.5439995,17.7959996 11.4120008,17.7839997 11.26,17.7839997 C10.9959987,17.7839997 10.7140015,17.8619989 10.414,18.0179997 C10.1139985,18.1740005 9.90000066,18.3519987 9.77200002,18.5519997 L9.77200002,22.4999997 Z M17.396,22.4999997 L16.136,22.4999997 L16.136,21.8759997 C15.6879978,22.3880023 15.064004,22.6439997 14.264,22.6439997 C13.7359974,22.6439997 13.2680021,22.4740014 12.86,22.1339997 C12.451998,21.793998 12.248,21.3240027 12.248,20.7239997 C12.248,20.1079966 12.449998,19.6400013 12.854,19.3199997 C13.2580021,18.9999981 13.7279974,18.8399997 14.264,18.8399997 C15.0880042,18.8399997 15.7119979,19.0879972 16.136,19.5839997 L16.136,18.7199997 C16.136,18.383998 16.0120013,18.1200007 15.764,17.9279997 C15.5159988,17.7359988 15.1880021,17.6399997 14.78,17.6399997 C14.1319968,17.6399997 13.5600025,17.8839973 13.064,18.3719997 L12.548,17.4959997 C13.2040033,16.8719966 14.0159952,16.5599997 14.984,16.5599997 C15.6960036,16.5599997 16.2759978,16.727998 16.724,17.0639997 C17.1720023,17.4000014 17.396,17.9319961 17.396,18.6599997 L17.396,22.4999997 Z M14.756,21.7799997 C15.3880032,21.7799997 15.8479986,21.5800017 16.136,21.1799997 L16.136,20.3039997 C15.8479986,19.9039977 15.3880032,19.7039997 14.756,19.7039997 C14.3959982,19.7039997 14.1000012,19.7999988 13.868,19.9919997 C13.6359989,20.1840007 13.52,20.4359982 13.52,20.7479997 C13.52,21.0600013 13.6359989,21.3099988 13.868,21.4979997 C14.1000012,21.6860007 14.3959982,21.7799997 14.756,21.7799997 Z M24.1200001,22.4999997 L22.8600001,22.4999997 L22.8600001,18.8759997 C22.8600001,18.0759957 22.4720039,17.6759997 21.6960001,17.6759997 C21.3919985,17.6759997 21.1080014,17.751999 20.8440001,17.9039997 C20.5799987,18.0560005 20.3680009,18.2399986 20.2080001,18.4559997 L20.2080001,22.4999997 L18.9480001,22.4999997 L18.9480001,16.7039997 L20.2080001,16.7039997 L20.2080001,17.4959997 C20.4240011,17.2399984 20.7119983,17.0200006 21.0720001,16.8359997 C21.4320019,16.6519988 21.8239979,16.5599997 22.2480001,16.5599997 C22.8640031,16.5599997 23.3299985,16.7199981 23.6460001,17.0399997 C23.9620016,17.3600013 24.1200001,17.8199967 24.1200001,18.4199997 L24.1200001,22.4999997 Z M31.0120001,22.4999997 L29.7520001,22.4999997 L29.7520001,21.7079997 C29.2719977,22.3320028 28.6520039,22.6439997 27.8920001,22.6439997 C27.1319963,22.6439997 26.5120025,22.3720024 26.0320001,21.8279997 C25.5519977,21.283997 25.3120001,20.5440044 25.3120001,19.6079997 C25.3120001,18.6799951 25.5519977,17.9400025 26.0320001,17.3879997 C26.5120025,16.835997 27.1319963,16.5599997 27.8920001,16.5599997 C28.6520039,16.5599997 29.2719977,16.8759966 29.7520001,17.5079997 L29.7520001,14.4959997 L31.0120001,14.4959997 L31.0120001,22.4999997 Z M28.2520001,21.5279997 C28.5480016,21.5279997 28.8359987,21.4560004 29.1160001,21.3119997 C29.3960015,21.167999 29.6079994,20.9840008 29.7520001,20.7599997 L29.7520001,18.4559997 C29.6079994,18.2319986 29.3960015,18.0460005 29.1160001,17.8979997 C28.8359987,17.749999 28.5480016,17.6759997 28.2520001,17.6759997 C27.7559976,17.6759997 27.3600016,17.8559979 27.0640001,18.2159997 C26.7679986,18.5760015 26.6200001,19.0399969 26.6200001,19.6079997 C26.6200001,20.1760026 26.7679986,20.6379979 27.0640001,20.9939997 C27.3600016,21.3500015 27.7559976,21.5279997 28.2520001,21.5279997 Z M33.8000001,22.3919997 C33.6319993,22.5520005 33.4360012,22.6319997 33.2120001,22.6319997 C32.987999,22.6319997 32.7920009,22.5500005 32.6240001,22.3859997 C32.4559993,22.2219989 32.3720001,22.0240009 32.3720001,21.7919997 C32.3720001,21.5599986 32.4559993,21.3620005 32.6240001,21.1979997 C32.7920009,21.0339989 32.987999,20.9519997 33.2120001,20.9519997 C33.4360012,20.9519997 33.6319993,21.0339989 33.8000001,21.1979997 C33.9680009,21.3620005 34.0520001,21.5599986 34.0520001,21.7919997 C34.0520001,22.0240009 33.9680009,22.2239989 33.8000001,22.3919997 Z M36.6840001,22.4999997 L35.4240001,22.4999997 L35.4240001,14.4959997 L36.6840001,14.4959997 L36.6840001,22.4999997 Z M38.8600001,15.9959997 C38.6519991,15.9959997 38.4700009,15.9200005 38.3140001,15.7679997 C38.1579994,15.615999 38.0800001,15.4320008 38.0800001,15.2159997 C38.0800001,14.9999986 38.1579994,14.8160005 38.3140001,14.6639997 C38.4700009,14.511999 38.6519991,14.4359997 38.8600001,14.4359997 C39.0760012,14.4359997 39.2599994,14.511999 39.4120001,14.6639997 C39.5640009,14.8160005 39.6400001,14.9999986 39.6400001,15.2159997 C39.6400001,15.4320008 39.5640009,15.615999 39.4120001,15.7679997 C39.2599994,15.9200005 39.0760012,15.9959997 38.8600001,15.9959997 Z M39.4960001,22.4999997 L38.2360001,22.4999997 L38.2360001,16.7039997 L39.4960001,16.7039997 L39.4960001,22.4999997 Z M46.2200002,22.4999997 L44.9600002,22.4999997 L44.9600002,18.8759997 C44.9600002,18.0759957 44.572004,17.6759997 43.7960002,17.6759997 C43.4919986,17.6759997 43.2080015,17.751999 42.9440002,17.9039997 C42.6799988,18.0560005 42.468001,18.2399986 42.3080002,18.4559997 L42.3080002,22.4999997 L41.0480002,22.4999997 L41.0480002,16.7039997 L42.3080002,16.7039997 L42.3080002,17.4959997 C42.5240012,17.2399984 42.8119984,17.0200006 43.1720002,16.8359997 C43.532002,16.6519988 43.923998,16.5599997 44.3480002,16.5599997 C44.9640032,16.5599997 45.4299986,16.7199981 45.7460002,17.0399997 C46.0620017,17.3600013 46.2200002,17.8199967 46.2200002,18.4199997 L46.2200002,22.4999997 Z M53.1960002,22.4999997 L51.6120002,22.4999997 L49.8360002,20.1119997 L49.0320002,20.9399997 L49.0320002,22.4999997 L47.7720002,22.4999997 L47.7720002,14.4959997 L49.0320002,14.4959997 L49.0320002,19.4999997 L51.5880002,16.7039997 L53.1480002,16.7039997 L50.7360002,19.3319997 L53.1960002,22.4999997 Z M54.1240002,22.7399997 L53.1880002,22.7399997 L56.0320002,14.2559997 L56.9680002,14.2559997 L54.1240002,22.7399997 Z M64.2560002,22.4999997 L62.5280002,22.4999997 L59.8400002,19.1279997 L59.1440002,19.9439997 L59.1440002,22.4999997 L57.7400002,22.4999997 L57.7400002,14.4959997 L59.1440002,14.4959997 L59.1440002,18.3119997 L62.2760002,14.4959997 L64.0160002,14.4959997 L60.7640002,18.2759997 L64.2560002,22.4999997 Z M67.3920002,22.6439997 C66.5119958,22.6439997 65.7860031,22.3620025 65.2140002,21.7979997 C64.6419974,21.2339969 64.3560002,20.5000042 64.3560002,19.5959997 C64.3560002,18.7479955 64.6339975,18.0300027 65.1900002,17.4419997 C65.746003,16.8539968 66.447996,16.5599997 67.2960002,16.5599997 C68.1520045,16.5599997 68.8419976,16.8559968 69.3660002,17.4479997 C69.8900029,18.0400027 70.1520002,18.7959951 70.1520002,19.7159997 L70.1520002,20.0159997 L65.6760002,20.0159997 C65.7240005,20.472002 65.9119986,20.8519982 66.2400002,21.1559997 C66.5680019,21.4600012 66.9959976,21.6119997 67.5240002,21.6119997 C67.8200017,21.6119997 68.1179987,21.5560003 68.4180002,21.4439997 C68.7180017,21.3319992 68.9679992,21.1760007 69.1680002,20.9759997 L69.7440002,21.8039997 C69.1599973,22.3640025 68.3760052,22.6439997 67.3920002,22.6439997 Z M68.9280002,19.1279997 C68.9120002,18.7279977 68.7660016,18.3720013 68.4900002,18.0599997 C68.2139989,17.7479982 67.8160028,17.5919997 67.2960002,17.5919997 C66.7999978,17.5919997 66.4120016,17.7459982 66.1320002,18.0539997 C65.8519988,18.3620013 65.6960004,18.7199977 65.6640002,19.1279997 L68.9280002,19.1279997 Z M71.0680003,24.7679997 L71.2600003,23.6399997 C71.404001,23.704 71.5639994,23.7359997 71.7400003,23.7359997 C72.1480023,23.7359997 72.4239995,23.5680014 72.5680003,23.2319997 L72.8560003,22.5719997 L70.4800003,16.7039997 L71.8240003,16.7039997 L73.5160003,21.0479997 L75.2080003,16.7039997 L76.5640003,16.7039997 L73.7680003,23.5439997 C73.4239985,24.400004 72.7600052,24.8359996 71.7760003,24.8519997 C71.5119989,24.8519997 71.2760013,24.824 71.0680003,24.7679997 Z M83.6480003,22.4999997 L82.3280003,22.4999997 L80.9840003,18.2519997 L79.6400003,22.4999997 L78.3200003,22.4999997 L76.5200003,16.7039997 L77.8280003,16.7039997 L79.0520003,20.9159997 L80.4320003,16.7039997 L81.5360003,16.7039997 L82.9160003,20.9159997 L84.1400003,16.7039997 L85.4480003,16.7039997 L83.6480003,22.4999997 Z M88.8600003,22.6439997 C87.9639958,22.6439997 87.244003,22.3500027 86.7000003,21.7619997 C86.1559976,21.1739968 85.8840003,20.452004 85.8840003,19.5959997 C85.8840003,18.7399954 86.1559976,18.0200026 86.7000003,17.4359997 C87.244003,16.8519968 87.9639958,16.5599997 88.8600003,16.5599997 C89.7640048,16.5599997 90.4879976,16.8519968 91.0320003,17.4359997 C91.576003,18.0200026 91.8480003,18.7399954 91.8480003,19.5959997 C91.8480003,20.460004 91.576003,21.1839968 91.0320003,21.7679997 C90.4879976,22.3520026 89.7640048,22.6439997 88.8600003,22.6439997 Z M88.8600003,21.5279997 C89.3800029,21.5279997 89.7899988,21.3420016 90.0900003,20.9699997 C90.3900018,20.5979979 90.5400003,20.1400024 90.5400003,19.5959997 C90.5400003,19.059997 90.3900018,18.6060016 90.0900003,18.2339997 C89.7899988,17.8619979 89.3800029,17.6759997 88.8600003,17.6759997 C88.3479977,17.6759997 87.9420018,17.8619979 87.6420003,18.2339997 C87.3419988,18.6060016 87.1920003,19.059997 87.1920003,19.5959997 C87.1920003,20.1400024 87.3419988,20.5979979 87.6420003,20.9699997 C87.9420018,21.3420016 88.3479977,21.5279997 88.8600003,21.5279997 Z M94.3000003,22.4999997 L93.0400003,22.4999997 L93.0400003,16.7039997 L94.3000003,16.7039997 L94.3000003,17.5559997 C94.5240014,17.2679983 94.8039986,17.0320006 95.1400003,16.8479997 C95.476002,16.6639988 95.8239985,16.5719997 96.1840003,16.5719997 L96.1840003,17.8199997 C96.0719998,17.7959996 95.9400011,17.7839997 95.7880003,17.7839997 C95.523999,17.7839997 95.2420018,17.8619989 94.9420003,18.0179997 C94.6419988,18.1740005 94.428001,18.3519987 94.3000003,18.5519997 L94.3000003,22.4999997 Z M102.464,22.4999997 L101.204,22.4999997 L101.204,21.7079997 C100.723998,22.3320028 100.104004,22.6439997 99.3440003,22.6439997 C98.5839965,22.6439997 97.9640027,22.3720024 97.4840003,21.8279997 C97.0039979,21.283997 96.7640003,20.5440044 96.7640003,19.6079997 C96.7640003,18.6799951 97.0039979,17.9400025 97.4840003,17.3879997 C97.9640027,16.835997 98.5839965,16.5599997 99.3440003,16.5599997 C100.104004,16.5599997 100.723998,16.8759966 101.204,17.5079997 L101.204,14.4959997 L102.464,14.4959997 L102.464,22.4999997 Z M99.7040003,21.5279997 C100.000002,21.5279997 100.287999,21.4560004 100.568,21.3119997 C100.848002,21.167999 101.06,20.9840008 101.204,20.7599997 L101.204,18.4559997 C101.06,18.2319986 100.848002,18.0460005 100.568,17.8979997 C100.287999,17.749999 100.000002,17.6759997 99.7040003,17.6759997 C99.2079979,17.6759997 98.8120018,17.8559979 98.5160003,18.2159997 C98.2199989,18.5760015 98.0720003,19.0399969 98.0720003,19.6079997 C98.0720003,20.1760026 98.2199989,20.6379979 98.5160003,20.9939997 C98.8120018,21.3500015 99.2079979,21.5279997 99.7040003,21.5279997 Z" id="Brand.link/Keyword" fill="#2180C1"></path>
                                    </g>
                                    <circle id="Avatar" fill="#C5CFD6" cx="21" cy="25.5" r="12"></circle>
                                </g>
                                <g id="Row-Copy" transform="translate(0.000000, 138.000000)">
                                    <path d="M4,0 L157,0 C159.209139,1.52910644e-14 161,1.790861 161,4 L161,47 C161,49.209139 159.209139,51 157,51 L11.4852495,51 L0,61 L-8.8817842e-16,4 C-1.15871992e-15,1.790861 1.790861,4.05812251e-16 4,0 Z" id="Background" fill="#FFFFFF"></path>
                                    <g id="Text" transform="translate(39.000000, 15.300000)">
                                        <rect id="Name" fill="#DDE3E9" x="0" y="0" width="103" height="7.65" rx="3"></rect>
                                        <path d="M4.896,22.4999997 L0.852,22.4999997 L0.852,14.4959997 L4.788,14.4959997 C5.50000356,14.4959997 6.05799798,14.6899978 6.462,15.0779997 C6.86600202,15.4660017 7.068,15.9519968 7.068,16.5359997 C7.068,17.0160021 6.93400134,17.4219981 6.666,17.7539997 C6.39799866,18.0860014 6.06800196,18.2919993 5.676,18.3719997 C6.10800216,18.436 6.4739985,18.6579978 6.774,19.0379997 C7.0740015,19.4180016 7.224,19.8519973 7.224,20.3399997 C7.224,20.9800029 7.01800206,21.4999977 6.606,21.8999997 C6.19399794,22.3000017 5.62400364,22.4999997 4.896,22.4999997 Z M4.5,17.8079997 C4.85200176,17.8079997 5.127999,17.7120007 5.328,17.5199997 C5.528001,17.3279988 5.628,17.0800012 5.628,16.7759997 C5.628,16.4639982 5.528001,16.2120007 5.328,16.0199997 C5.127999,15.8279988 4.85200176,15.7319997 4.5,15.7319997 L2.256,15.7319997 L2.256,17.8079997 L4.5,17.8079997 Z M4.56,21.2639997 C4.94400192,21.2639997 5.24399892,21.1660007 5.46,20.9699997 C5.67600108,20.7739987 5.784,20.5000015 5.784,20.1479997 C5.784,19.8359982 5.67600108,19.5740008 5.46,19.3619997 C5.24399892,19.1499987 4.94400192,19.0439997 4.56,19.0439997 L2.256,19.0439997 L2.256,21.2639997 L4.56,21.2639997 Z M9.77200002,22.4999997 L8.51200002,22.4999997 L8.51200002,16.7039997 L9.77200002,16.7039997 L9.77200002,17.5559997 C9.99600114,17.2679983 10.2759983,17.0320006 10.612,16.8479997 C10.9480017,16.6639988 11.2959982,16.5719997 11.656,16.5719997 L11.656,17.8199997 C11.5439995,17.7959996 11.4120008,17.7839997 11.26,17.7839997 C10.9959987,17.7839997 10.7140015,17.8619989 10.414,18.0179997 C10.1139985,18.1740005 9.90000066,18.3519987 9.77200002,18.5519997 L9.77200002,22.4999997 Z M17.396,22.4999997 L16.136,22.4999997 L16.136,21.8759997 C15.6879978,22.3880023 15.064004,22.6439997 14.264,22.6439997 C13.7359974,22.6439997 13.2680021,22.4740014 12.86,22.1339997 C12.451998,21.793998 12.248,21.3240027 12.248,20.7239997 C12.248,20.1079966 12.449998,19.6400013 12.854,19.3199997 C13.2580021,18.9999981 13.7279974,18.8399997 14.264,18.8399997 C15.0880042,18.8399997 15.7119979,19.0879972 16.136,19.5839997 L16.136,18.7199997 C16.136,18.383998 16.0120013,18.1200007 15.764,17.9279997 C15.5159988,17.7359988 15.1880021,17.6399997 14.78,17.6399997 C14.1319968,17.6399997 13.5600025,17.8839973 13.064,18.3719997 L12.548,17.4959997 C13.2040033,16.8719966 14.0159952,16.5599997 14.984,16.5599997 C15.6960036,16.5599997 16.2759978,16.727998 16.724,17.0639997 C17.1720023,17.4000014 17.396,17.9319961 17.396,18.6599997 L17.396,22.4999997 Z M14.756,21.7799997 C15.3880032,21.7799997 15.8479986,21.5800017 16.136,21.1799997 L16.136,20.3039997 C15.8479986,19.9039977 15.3880032,19.7039997 14.756,19.7039997 C14.3959982,19.7039997 14.1000012,19.7999988 13.868,19.9919997 C13.6359989,20.1840007 13.52,20.4359982 13.52,20.7479997 C13.52,21.0600013 13.6359989,21.3099988 13.868,21.4979997 C14.1000012,21.6860007 14.3959982,21.7799997 14.756,21.7799997 Z M24.1200001,22.4999997 L22.8600001,22.4999997 L22.8600001,18.8759997 C22.8600001,18.0759957 22.4720039,17.6759997 21.6960001,17.6759997 C21.3919985,17.6759997 21.1080014,17.751999 20.8440001,17.9039997 C20.5799987,18.0560005 20.3680009,18.2399986 20.2080001,18.4559997 L20.2080001,22.4999997 L18.9480001,22.4999997 L18.9480001,16.7039997 L20.2080001,16.7039997 L20.2080001,17.4959997 C20.4240011,17.2399984 20.7119983,17.0200006 21.0720001,16.8359997 C21.4320019,16.6519988 21.8239979,16.5599997 22.2480001,16.5599997 C22.8640031,16.5599997 23.3299985,16.7199981 23.6460001,17.0399997 C23.9620016,17.3600013 24.1200001,17.8199967 24.1200001,18.4199997 L24.1200001,22.4999997 Z M31.0120001,22.4999997 L29.7520001,22.4999997 L29.7520001,21.7079997 C29.2719977,22.3320028 28.6520039,22.6439997 27.8920001,22.6439997 C27.1319963,22.6439997 26.5120025,22.3720024 26.0320001,21.8279997 C25.5519977,21.283997 25.3120001,20.5440044 25.3120001,19.6079997 C25.3120001,18.6799951 25.5519977,17.9400025 26.0320001,17.3879997 C26.5120025,16.835997 27.1319963,16.5599997 27.8920001,16.5599997 C28.6520039,16.5599997 29.2719977,16.8759966 29.7520001,17.5079997 L29.7520001,14.4959997 L31.0120001,14.4959997 L31.0120001,22.4999997 Z M28.2520001,21.5279997 C28.5480016,21.5279997 28.8359987,21.4560004 29.1160001,21.3119997 C29.3960015,21.167999 29.6079994,20.9840008 29.7520001,20.7599997 L29.7520001,18.4559997 C29.6079994,18.2319986 29.3960015,18.0460005 29.1160001,17.8979997 C28.8359987,17.749999 28.5480016,17.6759997 28.2520001,17.6759997 C27.7559976,17.6759997 27.3600016,17.8559979 27.0640001,18.2159997 C26.7679986,18.5760015 26.6200001,19.0399969 26.6200001,19.6079997 C26.6200001,20.1760026 26.7679986,20.6379979 27.0640001,20.9939997 C27.3600016,21.3500015 27.7559976,21.5279997 28.2520001,21.5279997 Z M33.8000001,22.3919997 C33.6319993,22.5520005 33.4360012,22.6319997 33.2120001,22.6319997 C32.987999,22.6319997 32.7920009,22.5500005 32.6240001,22.3859997 C32.4559993,22.2219989 32.3720001,22.0240009 32.3720001,21.7919997 C32.3720001,21.5599986 32.4559993,21.3620005 32.6240001,21.1979997 C32.7920009,21.0339989 32.987999,20.9519997 33.2120001,20.9519997 C33.4360012,20.9519997 33.6319993,21.0339989 33.8000001,21.1979997 C33.9680009,21.3620005 34.0520001,21.5599986 34.0520001,21.7919997 C34.0520001,22.0240009 33.9680009,22.2239989 33.8000001,22.3919997 Z M36.6840001,22.4999997 L35.4240001,22.4999997 L35.4240001,14.4959997 L36.6840001,14.4959997 L36.6840001,22.4999997 Z M38.8600001,15.9959997 C38.6519991,15.9959997 38.4700009,15.9200005 38.3140001,15.7679997 C38.1579994,15.615999 38.0800001,15.4320008 38.0800001,15.2159997 C38.0800001,14.9999986 38.1579994,14.8160005 38.3140001,14.6639997 C38.4700009,14.511999 38.6519991,14.4359997 38.8600001,14.4359997 C39.0760012,14.4359997 39.2599994,14.511999 39.4120001,14.6639997 C39.5640009,14.8160005 39.6400001,14.9999986 39.6400001,15.2159997 C39.6400001,15.4320008 39.5640009,15.615999 39.4120001,15.7679997 C39.2599994,15.9200005 39.0760012,15.9959997 38.8600001,15.9959997 Z M39.4960001,22.4999997 L38.2360001,22.4999997 L38.2360001,16.7039997 L39.4960001,16.7039997 L39.4960001,22.4999997 Z M46.2200002,22.4999997 L44.9600002,22.4999997 L44.9600002,18.8759997 C44.9600002,18.0759957 44.572004,17.6759997 43.7960002,17.6759997 C43.4919986,17.6759997 43.2080015,17.751999 42.9440002,17.9039997 C42.6799988,18.0560005 42.468001,18.2399986 42.3080002,18.4559997 L42.3080002,22.4999997 L41.0480002,22.4999997 L41.0480002,16.7039997 L42.3080002,16.7039997 L42.3080002,17.4959997 C42.5240012,17.2399984 42.8119984,17.0200006 43.1720002,16.8359997 C43.532002,16.6519988 43.923998,16.5599997 44.3480002,16.5599997 C44.9640032,16.5599997 45.4299986,16.7199981 45.7460002,17.0399997 C46.0620017,17.3600013 46.2200002,17.8199967 46.2200002,18.4199997 L46.2200002,22.4999997 Z M53.1960002,22.4999997 L51.6120002,22.4999997 L49.8360002,20.1119997 L49.0320002,20.9399997 L49.0320002,22.4999997 L47.7720002,22.4999997 L47.7720002,14.4959997 L49.0320002,14.4959997 L49.0320002,19.4999997 L51.5880002,16.7039997 L53.1480002,16.7039997 L50.7360002,19.3319997 L53.1960002,22.4999997 Z M54.1240002,22.7399997 L53.1880002,22.7399997 L56.0320002,14.2559997 L56.9680002,14.2559997 L54.1240002,22.7399997 Z M64.2560002,22.4999997 L62.5280002,22.4999997 L59.8400002,19.1279997 L59.1440002,19.9439997 L59.1440002,22.4999997 L57.7400002,22.4999997 L57.7400002,14.4959997 L59.1440002,14.4959997 L59.1440002,18.3119997 L62.2760002,14.4959997 L64.0160002,14.4959997 L60.7640002,18.2759997 L64.2560002,22.4999997 Z M67.3920002,22.6439997 C66.5119958,22.6439997 65.7860031,22.3620025 65.2140002,21.7979997 C64.6419974,21.2339969 64.3560002,20.5000042 64.3560002,19.5959997 C64.3560002,18.7479955 64.6339975,18.0300027 65.1900002,17.4419997 C65.746003,16.8539968 66.447996,16.5599997 67.2960002,16.5599997 C68.1520045,16.5599997 68.8419976,16.8559968 69.3660002,17.4479997 C69.8900029,18.0400027 70.1520002,18.7959951 70.1520002,19.7159997 L70.1520002,20.0159997 L65.6760002,20.0159997 C65.7240005,20.472002 65.9119986,20.8519982 66.2400002,21.1559997 C66.5680019,21.4600012 66.9959976,21.6119997 67.5240002,21.6119997 C67.8200017,21.6119997 68.1179987,21.5560003 68.4180002,21.4439997 C68.7180017,21.3319992 68.9679992,21.1760007 69.1680002,20.9759997 L69.7440002,21.8039997 C69.1599973,22.3640025 68.3760052,22.6439997 67.3920002,22.6439997 Z M68.9280002,19.1279997 C68.9120002,18.7279977 68.7660016,18.3720013 68.4900002,18.0599997 C68.2139989,17.7479982 67.8160028,17.5919997 67.2960002,17.5919997 C66.7999978,17.5919997 66.4120016,17.7459982 66.1320002,18.0539997 C65.8519988,18.3620013 65.6960004,18.7199977 65.6640002,19.1279997 L68.9280002,19.1279997 Z M71.0680003,24.7679997 L71.2600003,23.6399997 C71.404001,23.704 71.5639994,23.7359997 71.7400003,23.7359997 C72.1480023,23.7359997 72.4239995,23.5680014 72.5680003,23.2319997 L72.8560003,22.5719997 L70.4800003,16.7039997 L71.8240003,16.7039997 L73.5160003,21.0479997 L75.2080003,16.7039997 L76.5640003,16.7039997 L73.7680003,23.5439997 C73.4239985,24.400004 72.7600052,24.8359996 71.7760003,24.8519997 C71.5119989,24.8519997 71.2760013,24.824 71.0680003,24.7679997 Z M83.6480003,22.4999997 L82.3280003,22.4999997 L80.9840003,18.2519997 L79.6400003,22.4999997 L78.3200003,22.4999997 L76.5200003,16.7039997 L77.8280003,16.7039997 L79.0520003,20.9159997 L80.4320003,16.7039997 L81.5360003,16.7039997 L82.9160003,20.9159997 L84.1400003,16.7039997 L85.4480003,16.7039997 L83.6480003,22.4999997 Z M88.8600003,22.6439997 C87.9639958,22.6439997 87.244003,22.3500027 86.7000003,21.7619997 C86.1559976,21.1739968 85.8840003,20.452004 85.8840003,19.5959997 C85.8840003,18.7399954 86.1559976,18.0200026 86.7000003,17.4359997 C87.244003,16.8519968 87.9639958,16.5599997 88.8600003,16.5599997 C89.7640048,16.5599997 90.4879976,16.8519968 91.0320003,17.4359997 C91.576003,18.0200026 91.8480003,18.7399954 91.8480003,19.5959997 C91.8480003,20.460004 91.576003,21.1839968 91.0320003,21.7679997 C90.4879976,22.3520026 89.7640048,22.6439997 88.8600003,22.6439997 Z M88.8600003,21.5279997 C89.3800029,21.5279997 89.7899988,21.3420016 90.0900003,20.9699997 C90.3900018,20.5979979 90.5400003,20.1400024 90.5400003,19.5959997 C90.5400003,19.059997 90.3900018,18.6060016 90.0900003,18.2339997 C89.7899988,17.8619979 89.3800029,17.6759997 88.8600003,17.6759997 C88.3479977,17.6759997 87.9420018,17.8619979 87.6420003,18.2339997 C87.3419988,18.6060016 87.1920003,19.059997 87.1920003,19.5959997 C87.1920003,20.1400024 87.3419988,20.5979979 87.6420003,20.9699997 C87.9420018,21.3420016 88.3479977,21.5279997 88.8600003,21.5279997 Z M94.3000003,22.4999997 L93.0400003,22.4999997 L93.0400003,16.7039997 L94.3000003,16.7039997 L94.3000003,17.5559997 C94.5240014,17.2679983 94.8039986,17.0320006 95.1400003,16.8479997 C95.476002,16.6639988 95.8239985,16.5719997 96.1840003,16.5719997 L96.1840003,17.8199997 C96.0719998,17.7959996 95.9400011,17.7839997 95.7880003,17.7839997 C95.523999,17.7839997 95.2420018,17.8619989 94.9420003,18.0179997 C94.6419988,18.1740005 94.428001,18.3519987 94.3000003,18.5519997 L94.3000003,22.4999997 Z M102.464,22.4999997 L101.204,22.4999997 L101.204,21.7079997 C100.723998,22.3320028 100.104004,22.6439997 99.3440003,22.6439997 C98.5839965,22.6439997 97.9640027,22.3720024 97.4840003,21.8279997 C97.0039979,21.283997 96.7640003,20.5440044 96.7640003,19.6079997 C96.7640003,18.6799951 97.0039979,17.9400025 97.4840003,17.3879997 C97.9640027,16.835997 98.5839965,16.5599997 99.3440003,16.5599997 C100.104004,16.5599997 100.723998,16.8759966 101.204,17.5079997 L101.204,14.4959997 L102.464,14.4959997 L102.464,22.4999997 Z M99.7040003,21.5279997 C100.000002,21.5279997 100.287999,21.4560004 100.568,21.3119997 C100.848002,21.167999 101.06,20.9840008 101.204,20.7599997 L101.204,18.4559997 C101.06,18.2319986 100.848002,18.0460005 100.568,17.8979997 C100.287999,17.749999 100.000002,17.6759997 99.7040003,17.6759997 C99.2079979,17.6759997 98.8120018,17.8559979 98.5160003,18.2159997 C98.2199989,18.5760015 98.0720003,19.0399969 98.0720003,19.6079997 C98.0720003,20.1760026 98.2199989,20.6379979 98.5160003,20.9939997 C98.8120018,21.3500015 99.2079979,21.5279997 99.7040003,21.5279997 Z" id="Brand.link/Keyword" fill="#2180C1"></path>
                                    </g>
                                    <circle id="Avatar" fill="#C5CFD6" cx="21" cy="25.5" r="12"></circle>
                                </g>
                                <g id="Row-Copy-2" transform="translate(0.000000, 69.000000)">
                                    <path d="M4,0 L157,0 C159.209139,1.52910644e-14 161,1.790861 161,4 L161,47 C161,49.209139 159.209139,51 157,51 L11.4852495,51 L0,61 L-8.8817842e-16,4 C-1.15871992e-15,1.790861 1.790861,4.05812251e-16 4,0 Z" id="Background" fill="#FFFFFF"></path>
                                    <g id="Text" transform="translate(39.000000, 15.300000)">
                                        <rect id="Name" fill="#DDE3E9" x="0" y="0" width="103" height="7.65" rx="3"></rect>
                                        <path d="M4.896,22.4999997 L0.852,22.4999997 L0.852,14.4959997 L4.788,14.4959997 C5.50000356,14.4959997 6.05799798,14.6899978 6.462,15.0779997 C6.86600202,15.4660017 7.068,15.9519968 7.068,16.5359997 C7.068,17.0160021 6.93400134,17.4219981 6.666,17.7539997 C6.39799866,18.0860014 6.06800196,18.2919993 5.676,18.3719997 C6.10800216,18.436 6.4739985,18.6579978 6.774,19.0379997 C7.0740015,19.4180016 7.224,19.8519973 7.224,20.3399997 C7.224,20.9800029 7.01800206,21.4999977 6.606,21.8999997 C6.19399794,22.3000017 5.62400364,22.4999997 4.896,22.4999997 Z M4.5,17.8079997 C4.85200176,17.8079997 5.127999,17.7120007 5.328,17.5199997 C5.528001,17.3279988 5.628,17.0800012 5.628,16.7759997 C5.628,16.4639982 5.528001,16.2120007 5.328,16.0199997 C5.127999,15.8279988 4.85200176,15.7319997 4.5,15.7319997 L2.256,15.7319997 L2.256,17.8079997 L4.5,17.8079997 Z M4.56,21.2639997 C4.94400192,21.2639997 5.24399892,21.1660007 5.46,20.9699997 C5.67600108,20.7739987 5.784,20.5000015 5.784,20.1479997 C5.784,19.8359982 5.67600108,19.5740008 5.46,19.3619997 C5.24399892,19.1499987 4.94400192,19.0439997 4.56,19.0439997 L2.256,19.0439997 L2.256,21.2639997 L4.56,21.2639997 Z M9.77200002,22.4999997 L8.51200002,22.4999997 L8.51200002,16.7039997 L9.77200002,16.7039997 L9.77200002,17.5559997 C9.99600114,17.2679983 10.2759983,17.0320006 10.612,16.8479997 C10.9480017,16.6639988 11.2959982,16.5719997 11.656,16.5719997 L11.656,17.8199997 C11.5439995,17.7959996 11.4120008,17.7839997 11.26,17.7839997 C10.9959987,17.7839997 10.7140015,17.8619989 10.414,18.0179997 C10.1139985,18.1740005 9.90000066,18.3519987 9.77200002,18.5519997 L9.77200002,22.4999997 Z M17.396,22.4999997 L16.136,22.4999997 L16.136,21.8759997 C15.6879978,22.3880023 15.064004,22.6439997 14.264,22.6439997 C13.7359974,22.6439997 13.2680021,22.4740014 12.86,22.1339997 C12.451998,21.793998 12.248,21.3240027 12.248,20.7239997 C12.248,20.1079966 12.449998,19.6400013 12.854,19.3199997 C13.2580021,18.9999981 13.7279974,18.8399997 14.264,18.8399997 C15.0880042,18.8399997 15.7119979,19.0879972 16.136,19.5839997 L16.136,18.7199997 C16.136,18.383998 16.0120013,18.1200007 15.764,17.9279997 C15.5159988,17.7359988 15.1880021,17.6399997 14.78,17.6399997 C14.1319968,17.6399997 13.5600025,17.8839973 13.064,18.3719997 L12.548,17.4959997 C13.2040033,16.8719966 14.0159952,16.5599997 14.984,16.5599997 C15.6960036,16.5599997 16.2759978,16.727998 16.724,17.0639997 C17.1720023,17.4000014 17.396,17.9319961 17.396,18.6599997 L17.396,22.4999997 Z M14.756,21.7799997 C15.3880032,21.7799997 15.8479986,21.5800017 16.136,21.1799997 L16.136,20.3039997 C15.8479986,19.9039977 15.3880032,19.7039997 14.756,19.7039997 C14.3959982,19.7039997 14.1000012,19.7999988 13.868,19.9919997 C13.6359989,20.1840007 13.52,20.4359982 13.52,20.7479997 C13.52,21.0600013 13.6359989,21.3099988 13.868,21.4979997 C14.1000012,21.6860007 14.3959982,21.7799997 14.756,21.7799997 Z M24.1200001,22.4999997 L22.8600001,22.4999997 L22.8600001,18.8759997 C22.8600001,18.0759957 22.4720039,17.6759997 21.6960001,17.6759997 C21.3919985,17.6759997 21.1080014,17.751999 20.8440001,17.9039997 C20.5799987,18.0560005 20.3680009,18.2399986 20.2080001,18.4559997 L20.2080001,22.4999997 L18.9480001,22.4999997 L18.9480001,16.7039997 L20.2080001,16.7039997 L20.2080001,17.4959997 C20.4240011,17.2399984 20.7119983,17.0200006 21.0720001,16.8359997 C21.4320019,16.6519988 21.8239979,16.5599997 22.2480001,16.5599997 C22.8640031,16.5599997 23.3299985,16.7199981 23.6460001,17.0399997 C23.9620016,17.3600013 24.1200001,17.8199967 24.1200001,18.4199997 L24.1200001,22.4999997 Z M31.0120001,22.4999997 L29.7520001,22.4999997 L29.7520001,21.7079997 C29.2719977,22.3320028 28.6520039,22.6439997 27.8920001,22.6439997 C27.1319963,22.6439997 26.5120025,22.3720024 26.0320001,21.8279997 C25.5519977,21.283997 25.3120001,20.5440044 25.3120001,19.6079997 C25.3120001,18.6799951 25.5519977,17.9400025 26.0320001,17.3879997 C26.5120025,16.835997 27.1319963,16.5599997 27.8920001,16.5599997 C28.6520039,16.5599997 29.2719977,16.8759966 29.7520001,17.5079997 L29.7520001,14.4959997 L31.0120001,14.4959997 L31.0120001,22.4999997 Z M28.2520001,21.5279997 C28.5480016,21.5279997 28.8359987,21.4560004 29.1160001,21.3119997 C29.3960015,21.167999 29.6079994,20.9840008 29.7520001,20.7599997 L29.7520001,18.4559997 C29.6079994,18.2319986 29.3960015,18.0460005 29.1160001,17.8979997 C28.8359987,17.749999 28.5480016,17.6759997 28.2520001,17.6759997 C27.7559976,17.6759997 27.3600016,17.8559979 27.0640001,18.2159997 C26.7679986,18.5760015 26.6200001,19.0399969 26.6200001,19.6079997 C26.6200001,20.1760026 26.7679986,20.6379979 27.0640001,20.9939997 C27.3600016,21.3500015 27.7559976,21.5279997 28.2520001,21.5279997 Z M33.8000001,22.3919997 C33.6319993,22.5520005 33.4360012,22.6319997 33.2120001,22.6319997 C32.987999,22.6319997 32.7920009,22.5500005 32.6240001,22.3859997 C32.4559993,22.2219989 32.3720001,22.0240009 32.3720001,21.7919997 C32.3720001,21.5599986 32.4559993,21.3620005 32.6240001,21.1979997 C32.7920009,21.0339989 32.987999,20.9519997 33.2120001,20.9519997 C33.4360012,20.9519997 33.6319993,21.0339989 33.8000001,21.1979997 C33.9680009,21.3620005 34.0520001,21.5599986 34.0520001,21.7919997 C34.0520001,22.0240009 33.9680009,22.2239989 33.8000001,22.3919997 Z M36.6840001,22.4999997 L35.4240001,22.4999997 L35.4240001,14.4959997 L36.6840001,14.4959997 L36.6840001,22.4999997 Z M38.8600001,15.9959997 C38.6519991,15.9959997 38.4700009,15.9200005 38.3140001,15.7679997 C38.1579994,15.615999 38.0800001,15.4320008 38.0800001,15.2159997 C38.0800001,14.9999986 38.1579994,14.8160005 38.3140001,14.6639997 C38.4700009,14.511999 38.6519991,14.4359997 38.8600001,14.4359997 C39.0760012,14.4359997 39.2599994,14.511999 39.4120001,14.6639997 C39.5640009,14.8160005 39.6400001,14.9999986 39.6400001,15.2159997 C39.6400001,15.4320008 39.5640009,15.615999 39.4120001,15.7679997 C39.2599994,15.9200005 39.0760012,15.9959997 38.8600001,15.9959997 Z M39.4960001,22.4999997 L38.2360001,22.4999997 L38.2360001,16.7039997 L39.4960001,16.7039997 L39.4960001,22.4999997 Z M46.2200002,22.4999997 L44.9600002,22.4999997 L44.9600002,18.8759997 C44.9600002,18.0759957 44.572004,17.6759997 43.7960002,17.6759997 C43.4919986,17.6759997 43.2080015,17.751999 42.9440002,17.9039997 C42.6799988,18.0560005 42.468001,18.2399986 42.3080002,18.4559997 L42.3080002,22.4999997 L41.0480002,22.4999997 L41.0480002,16.7039997 L42.3080002,16.7039997 L42.3080002,17.4959997 C42.5240012,17.2399984 42.8119984,17.0200006 43.1720002,16.8359997 C43.532002,16.6519988 43.923998,16.5599997 44.3480002,16.5599997 C44.9640032,16.5599997 45.4299986,16.7199981 45.7460002,17.0399997 C46.0620017,17.3600013 46.2200002,17.8199967 46.2200002,18.4199997 L46.2200002,22.4999997 Z M53.1960002,22.4999997 L51.6120002,22.4999997 L49.8360002,20.1119997 L49.0320002,20.9399997 L49.0320002,22.4999997 L47.7720002,22.4999997 L47.7720002,14.4959997 L49.0320002,14.4959997 L49.0320002,19.4999997 L51.5880002,16.7039997 L53.1480002,16.7039997 L50.7360002,19.3319997 L53.1960002,22.4999997 Z M54.1240002,22.7399997 L53.1880002,22.7399997 L56.0320002,14.2559997 L56.9680002,14.2559997 L54.1240002,22.7399997 Z M64.2560002,22.4999997 L62.5280002,22.4999997 L59.8400002,19.1279997 L59.1440002,19.9439997 L59.1440002,22.4999997 L57.7400002,22.4999997 L57.7400002,14.4959997 L59.1440002,14.4959997 L59.1440002,18.3119997 L62.2760002,14.4959997 L64.0160002,14.4959997 L60.7640002,18.2759997 L64.2560002,22.4999997 Z M67.3920002,22.6439997 C66.5119958,22.6439997 65.7860031,22.3620025 65.2140002,21.7979997 C64.6419974,21.2339969 64.3560002,20.5000042 64.3560002,19.5959997 C64.3560002,18.7479955 64.6339975,18.0300027 65.1900002,17.4419997 C65.746003,16.8539968 66.447996,16.5599997 67.2960002,16.5599997 C68.1520045,16.5599997 68.8419976,16.8559968 69.3660002,17.4479997 C69.8900029,18.0400027 70.1520002,18.7959951 70.1520002,19.7159997 L70.1520002,20.0159997 L65.6760002,20.0159997 C65.7240005,20.472002 65.9119986,20.8519982 66.2400002,21.1559997 C66.5680019,21.4600012 66.9959976,21.6119997 67.5240002,21.6119997 C67.8200017,21.6119997 68.1179987,21.5560003 68.4180002,21.4439997 C68.7180017,21.3319992 68.9679992,21.1760007 69.1680002,20.9759997 L69.7440002,21.8039997 C69.1599973,22.3640025 68.3760052,22.6439997 67.3920002,22.6439997 Z M68.9280002,19.1279997 C68.9120002,18.7279977 68.7660016,18.3720013 68.4900002,18.0599997 C68.2139989,17.7479982 67.8160028,17.5919997 67.2960002,17.5919997 C66.7999978,17.5919997 66.4120016,17.7459982 66.1320002,18.0539997 C65.8519988,18.3620013 65.6960004,18.7199977 65.6640002,19.1279997 L68.9280002,19.1279997 Z M71.0680003,24.7679997 L71.2600003,23.6399997 C71.404001,23.704 71.5639994,23.7359997 71.7400003,23.7359997 C72.1480023,23.7359997 72.4239995,23.5680014 72.5680003,23.2319997 L72.8560003,22.5719997 L70.4800003,16.7039997 L71.8240003,16.7039997 L73.5160003,21.0479997 L75.2080003,16.7039997 L76.5640003,16.7039997 L73.7680003,23.5439997 C73.4239985,24.400004 72.7600052,24.8359996 71.7760003,24.8519997 C71.5119989,24.8519997 71.2760013,24.824 71.0680003,24.7679997 Z M83.6480003,22.4999997 L82.3280003,22.4999997 L80.9840003,18.2519997 L79.6400003,22.4999997 L78.3200003,22.4999997 L76.5200003,16.7039997 L77.8280003,16.7039997 L79.0520003,20.9159997 L80.4320003,16.7039997 L81.5360003,16.7039997 L82.9160003,20.9159997 L84.1400003,16.7039997 L85.4480003,16.7039997 L83.6480003,22.4999997 Z M88.8600003,22.6439997 C87.9639958,22.6439997 87.244003,22.3500027 86.7000003,21.7619997 C86.1559976,21.1739968 85.8840003,20.452004 85.8840003,19.5959997 C85.8840003,18.7399954 86.1559976,18.0200026 86.7000003,17.4359997 C87.244003,16.8519968 87.9639958,16.5599997 88.8600003,16.5599997 C89.7640048,16.5599997 90.4879976,16.8519968 91.0320003,17.4359997 C91.576003,18.0200026 91.8480003,18.7399954 91.8480003,19.5959997 C91.8480003,20.460004 91.576003,21.1839968 91.0320003,21.7679997 C90.4879976,22.3520026 89.7640048,22.6439997 88.8600003,22.6439997 Z M88.8600003,21.5279997 C89.3800029,21.5279997 89.7899988,21.3420016 90.0900003,20.9699997 C90.3900018,20.5979979 90.5400003,20.1400024 90.5400003,19.5959997 C90.5400003,19.059997 90.3900018,18.6060016 90.0900003,18.2339997 C89.7899988,17.8619979 89.3800029,17.6759997 88.8600003,17.6759997 C88.3479977,17.6759997 87.9420018,17.8619979 87.6420003,18.2339997 C87.3419988,18.6060016 87.1920003,19.059997 87.1920003,19.5959997 C87.1920003,20.1400024 87.3419988,20.5979979 87.6420003,20.9699997 C87.9420018,21.3420016 88.3479977,21.5279997 88.8600003,21.5279997 Z M94.3000003,22.4999997 L93.0400003,22.4999997 L93.0400003,16.7039997 L94.3000003,16.7039997 L94.3000003,17.5559997 C94.5240014,17.2679983 94.8039986,17.0320006 95.1400003,16.8479997 C95.476002,16.6639988 95.8239985,16.5719997 96.1840003,16.5719997 L96.1840003,17.8199997 C96.0719998,17.7959996 95.9400011,17.7839997 95.7880003,17.7839997 C95.523999,17.7839997 95.2420018,17.8619989 94.9420003,18.0179997 C94.6419988,18.1740005 94.428001,18.3519987 94.3000003,18.5519997 L94.3000003,22.4999997 Z M102.464,22.4999997 L101.204,22.4999997 L101.204,21.7079997 C100.723998,22.3320028 100.104004,22.6439997 99.3440003,22.6439997 C98.5839965,22.6439997 97.9640027,22.3720024 97.4840003,21.8279997 C97.0039979,21.283997 96.7640003,20.5440044 96.7640003,19.6079997 C96.7640003,18.6799951 97.0039979,17.9400025 97.4840003,17.3879997 C97.9640027,16.835997 98.5839965,16.5599997 99.3440003,16.5599997 C100.104004,16.5599997 100.723998,16.8759966 101.204,17.5079997 L101.204,14.4959997 L102.464,14.4959997 L102.464,22.4999997 Z M99.7040003,21.5279997 C100.000002,21.5279997 100.287999,21.4560004 100.568,21.3119997 C100.848002,21.167999 101.06,20.9840008 101.204,20.7599997 L101.204,18.4559997 C101.06,18.2319986 100.848002,18.0460005 100.568,17.8979997 C100.287999,17.749999 100.000002,17.6759997 99.7040003,17.6759997 C99.2079979,17.6759997 98.8120018,17.8559979 98.5160003,18.2159997 C98.2199989,18.5760015 98.0720003,19.0399969 98.0720003,19.6079997 C98.0720003,20.1760026 98.2199989,20.6379979 98.5160003,20.9939997 C98.8120018,21.3500015 99.2079979,21.5279997 99.7040003,21.5279997 Z" id="Brand.link/Keyword" fill="#2180C1"></path>
                                    </g>
                                    <circle id="Avatar" fill="#C5CFD6" cx="21" cy="25.5" r="12"></circle>
                                </g>
                                <g id="Row-Copy-3">
                                    <path d="M4,0 L157,0 C159.209139,1.52910644e-14 161,1.790861 161,4 L161,47 C161,49.209139 159.209139,51 157,51 L11.4852495,51 L0,61 L-8.8817842e-16,4 C-1.15871992e-15,1.790861 1.790861,4.05812251e-16 4,0 Z" id="Background" fill="#FFFFFF"></path>
                                    <g id="Text" transform="translate(39.000000, 15.300000)">
                                        <rect id="Name" fill="#DDE3E9" x="0" y="0" width="103" height="7.65" rx="3"></rect>
                                        <path d="M4.896,22.4999997 L0.852,22.4999997 L0.852,14.4959997 L4.788,14.4959997 C5.50000356,14.4959997 6.05799798,14.6899978 6.462,15.0779997 C6.86600202,15.4660017 7.068,15.9519968 7.068,16.5359997 C7.068,17.0160021 6.93400134,17.4219981 6.666,17.7539997 C6.39799866,18.0860014 6.06800196,18.2919993 5.676,18.3719997 C6.10800216,18.436 6.4739985,18.6579978 6.774,19.0379997 C7.0740015,19.4180016 7.224,19.8519973 7.224,20.3399997 C7.224,20.9800029 7.01800206,21.4999977 6.606,21.8999997 C6.19399794,22.3000017 5.62400364,22.4999997 4.896,22.4999997 Z M4.5,17.8079997 C4.85200176,17.8079997 5.127999,17.7120007 5.328,17.5199997 C5.528001,17.3279988 5.628,17.0800012 5.628,16.7759997 C5.628,16.4639982 5.528001,16.2120007 5.328,16.0199997 C5.127999,15.8279988 4.85200176,15.7319997 4.5,15.7319997 L2.256,15.7319997 L2.256,17.8079997 L4.5,17.8079997 Z M4.56,21.2639997 C4.94400192,21.2639997 5.24399892,21.1660007 5.46,20.9699997 C5.67600108,20.7739987 5.784,20.5000015 5.784,20.1479997 C5.784,19.8359982 5.67600108,19.5740008 5.46,19.3619997 C5.24399892,19.1499987 4.94400192,19.0439997 4.56,19.0439997 L2.256,19.0439997 L2.256,21.2639997 L4.56,21.2639997 Z M9.77200002,22.4999997 L8.51200002,22.4999997 L8.51200002,16.7039997 L9.77200002,16.7039997 L9.77200002,17.5559997 C9.99600114,17.2679983 10.2759983,17.0320006 10.612,16.8479997 C10.9480017,16.6639988 11.2959982,16.5719997 11.656,16.5719997 L11.656,17.8199997 C11.5439995,17.7959996 11.4120008,17.7839997 11.26,17.7839997 C10.9959987,17.7839997 10.7140015,17.8619989 10.414,18.0179997 C10.1139985,18.1740005 9.90000066,18.3519987 9.77200002,18.5519997 L9.77200002,22.4999997 Z M17.396,22.4999997 L16.136,22.4999997 L16.136,21.8759997 C15.6879978,22.3880023 15.064004,22.6439997 14.264,22.6439997 C13.7359974,22.6439997 13.2680021,22.4740014 12.86,22.1339997 C12.451998,21.793998 12.248,21.3240027 12.248,20.7239997 C12.248,20.1079966 12.449998,19.6400013 12.854,19.3199997 C13.2580021,18.9999981 13.7279974,18.8399997 14.264,18.8399997 C15.0880042,18.8399997 15.7119979,19.0879972 16.136,19.5839997 L16.136,18.7199997 C16.136,18.383998 16.0120013,18.1200007 15.764,17.9279997 C15.5159988,17.7359988 15.1880021,17.6399997 14.78,17.6399997 C14.1319968,17.6399997 13.5600025,17.8839973 13.064,18.3719997 L12.548,17.4959997 C13.2040033,16.8719966 14.0159952,16.5599997 14.984,16.5599997 C15.6960036,16.5599997 16.2759978,16.727998 16.724,17.0639997 C17.1720023,17.4000014 17.396,17.9319961 17.396,18.6599997 L17.396,22.4999997 Z M14.756,21.7799997 C15.3880032,21.7799997 15.8479986,21.5800017 16.136,21.1799997 L16.136,20.3039997 C15.8479986,19.9039977 15.3880032,19.7039997 14.756,19.7039997 C14.3959982,19.7039997 14.1000012,19.7999988 13.868,19.9919997 C13.6359989,20.1840007 13.52,20.4359982 13.52,20.7479997 C13.52,21.0600013 13.6359989,21.3099988 13.868,21.4979997 C14.1000012,21.6860007 14.3959982,21.7799997 14.756,21.7799997 Z M24.1200001,22.4999997 L22.8600001,22.4999997 L22.8600001,18.8759997 C22.8600001,18.0759957 22.4720039,17.6759997 21.6960001,17.6759997 C21.3919985,17.6759997 21.1080014,17.751999 20.8440001,17.9039997 C20.5799987,18.0560005 20.3680009,18.2399986 20.2080001,18.4559997 L20.2080001,22.4999997 L18.9480001,22.4999997 L18.9480001,16.7039997 L20.2080001,16.7039997 L20.2080001,17.4959997 C20.4240011,17.2399984 20.7119983,17.0200006 21.0720001,16.8359997 C21.4320019,16.6519988 21.8239979,16.5599997 22.2480001,16.5599997 C22.8640031,16.5599997 23.3299985,16.7199981 23.6460001,17.0399997 C23.9620016,17.3600013 24.1200001,17.8199967 24.1200001,18.4199997 L24.1200001,22.4999997 Z M31.0120001,22.4999997 L29.7520001,22.4999997 L29.7520001,21.7079997 C29.2719977,22.3320028 28.6520039,22.6439997 27.8920001,22.6439997 C27.1319963,22.6439997 26.5120025,22.3720024 26.0320001,21.8279997 C25.5519977,21.283997 25.3120001,20.5440044 25.3120001,19.6079997 C25.3120001,18.6799951 25.5519977,17.9400025 26.0320001,17.3879997 C26.5120025,16.835997 27.1319963,16.5599997 27.8920001,16.5599997 C28.6520039,16.5599997 29.2719977,16.8759966 29.7520001,17.5079997 L29.7520001,14.4959997 L31.0120001,14.4959997 L31.0120001,22.4999997 Z M28.2520001,21.5279997 C28.5480016,21.5279997 28.8359987,21.4560004 29.1160001,21.3119997 C29.3960015,21.167999 29.6079994,20.9840008 29.7520001,20.7599997 L29.7520001,18.4559997 C29.6079994,18.2319986 29.3960015,18.0460005 29.1160001,17.8979997 C28.8359987,17.749999 28.5480016,17.6759997 28.2520001,17.6759997 C27.7559976,17.6759997 27.3600016,17.8559979 27.0640001,18.2159997 C26.7679986,18.5760015 26.6200001,19.0399969 26.6200001,19.6079997 C26.6200001,20.1760026 26.7679986,20.6379979 27.0640001,20.9939997 C27.3600016,21.3500015 27.7559976,21.5279997 28.2520001,21.5279997 Z M33.8000001,22.3919997 C33.6319993,22.5520005 33.4360012,22.6319997 33.2120001,22.6319997 C32.987999,22.6319997 32.7920009,22.5500005 32.6240001,22.3859997 C32.4559993,22.2219989 32.3720001,22.0240009 32.3720001,21.7919997 C32.3720001,21.5599986 32.4559993,21.3620005 32.6240001,21.1979997 C32.7920009,21.0339989 32.987999,20.9519997 33.2120001,20.9519997 C33.4360012,20.9519997 33.6319993,21.0339989 33.8000001,21.1979997 C33.9680009,21.3620005 34.0520001,21.5599986 34.0520001,21.7919997 C34.0520001,22.0240009 33.9680009,22.2239989 33.8000001,22.3919997 Z M36.6840001,22.4999997 L35.4240001,22.4999997 L35.4240001,14.4959997 L36.6840001,14.4959997 L36.6840001,22.4999997 Z M38.8600001,15.9959997 C38.6519991,15.9959997 38.4700009,15.9200005 38.3140001,15.7679997 C38.1579994,15.615999 38.0800001,15.4320008 38.0800001,15.2159997 C38.0800001,14.9999986 38.1579994,14.8160005 38.3140001,14.6639997 C38.4700009,14.511999 38.6519991,14.4359997 38.8600001,14.4359997 C39.0760012,14.4359997 39.2599994,14.511999 39.4120001,14.6639997 C39.5640009,14.8160005 39.6400001,14.9999986 39.6400001,15.2159997 C39.6400001,15.4320008 39.5640009,15.615999 39.4120001,15.7679997 C39.2599994,15.9200005 39.0760012,15.9959997 38.8600001,15.9959997 Z M39.4960001,22.4999997 L38.2360001,22.4999997 L38.2360001,16.7039997 L39.4960001,16.7039997 L39.4960001,22.4999997 Z M46.2200002,22.4999997 L44.9600002,22.4999997 L44.9600002,18.8759997 C44.9600002,18.0759957 44.572004,17.6759997 43.7960002,17.6759997 C43.4919986,17.6759997 43.2080015,17.751999 42.9440002,17.9039997 C42.6799988,18.0560005 42.468001,18.2399986 42.3080002,18.4559997 L42.3080002,22.4999997 L41.0480002,22.4999997 L41.0480002,16.7039997 L42.3080002,16.7039997 L42.3080002,17.4959997 C42.5240012,17.2399984 42.8119984,17.0200006 43.1720002,16.8359997 C43.532002,16.6519988 43.923998,16.5599997 44.3480002,16.5599997 C44.9640032,16.5599997 45.4299986,16.7199981 45.7460002,17.0399997 C46.0620017,17.3600013 46.2200002,17.8199967 46.2200002,18.4199997 L46.2200002,22.4999997 Z M53.1960002,22.4999997 L51.6120002,22.4999997 L49.8360002,20.1119997 L49.0320002,20.9399997 L49.0320002,22.4999997 L47.7720002,22.4999997 L47.7720002,14.4959997 L49.0320002,14.4959997 L49.0320002,19.4999997 L51.5880002,16.7039997 L53.1480002,16.7039997 L50.7360002,19.3319997 L53.1960002,22.4999997 Z M54.1240002,22.7399997 L53.1880002,22.7399997 L56.0320002,14.2559997 L56.9680002,14.2559997 L54.1240002,22.7399997 Z M64.2560002,22.4999997 L62.5280002,22.4999997 L59.8400002,19.1279997 L59.1440002,19.9439997 L59.1440002,22.4999997 L57.7400002,22.4999997 L57.7400002,14.4959997 L59.1440002,14.4959997 L59.1440002,18.3119997 L62.2760002,14.4959997 L64.0160002,14.4959997 L60.7640002,18.2759997 L64.2560002,22.4999997 Z M67.3920002,22.6439997 C66.5119958,22.6439997 65.7860031,22.3620025 65.2140002,21.7979997 C64.6419974,21.2339969 64.3560002,20.5000042 64.3560002,19.5959997 C64.3560002,18.7479955 64.6339975,18.0300027 65.1900002,17.4419997 C65.746003,16.8539968 66.447996,16.5599997 67.2960002,16.5599997 C68.1520045,16.5599997 68.8419976,16.8559968 69.3660002,17.4479997 C69.8900029,18.0400027 70.1520002,18.7959951 70.1520002,19.7159997 L70.1520002,20.0159997 L65.6760002,20.0159997 C65.7240005,20.472002 65.9119986,20.8519982 66.2400002,21.1559997 C66.5680019,21.4600012 66.9959976,21.6119997 67.5240002,21.6119997 C67.8200017,21.6119997 68.1179987,21.5560003 68.4180002,21.4439997 C68.7180017,21.3319992 68.9679992,21.1760007 69.1680002,20.9759997 L69.7440002,21.8039997 C69.1599973,22.3640025 68.3760052,22.6439997 67.3920002,22.6439997 Z M68.9280002,19.1279997 C68.9120002,18.7279977 68.7660016,18.3720013 68.4900002,18.0599997 C68.2139989,17.7479982 67.8160028,17.5919997 67.2960002,17.5919997 C66.7999978,17.5919997 66.4120016,17.7459982 66.1320002,18.0539997 C65.8519988,18.3620013 65.6960004,18.7199977 65.6640002,19.1279997 L68.9280002,19.1279997 Z M71.0680003,24.7679997 L71.2600003,23.6399997 C71.404001,23.704 71.5639994,23.7359997 71.7400003,23.7359997 C72.1480023,23.7359997 72.4239995,23.5680014 72.5680003,23.2319997 L72.8560003,22.5719997 L70.4800003,16.7039997 L71.8240003,16.7039997 L73.5160003,21.0479997 L75.2080003,16.7039997 L76.5640003,16.7039997 L73.7680003,23.5439997 C73.4239985,24.400004 72.7600052,24.8359996 71.7760003,24.8519997 C71.5119989,24.8519997 71.2760013,24.824 71.0680003,24.7679997 Z M83.6480003,22.4999997 L82.3280003,22.4999997 L80.9840003,18.2519997 L79.6400003,22.4999997 L78.3200003,22.4999997 L76.5200003,16.7039997 L77.8280003,16.7039997 L79.0520003,20.9159997 L80.4320003,16.7039997 L81.5360003,16.7039997 L82.9160003,20.9159997 L84.1400003,16.7039997 L85.4480003,16.7039997 L83.6480003,22.4999997 Z M88.8600003,22.6439997 C87.9639958,22.6439997 87.244003,22.3500027 86.7000003,21.7619997 C86.1559976,21.1739968 85.8840003,20.452004 85.8840003,19.5959997 C85.8840003,18.7399954 86.1559976,18.0200026 86.7000003,17.4359997 C87.244003,16.8519968 87.9639958,16.5599997 88.8600003,16.5599997 C89.7640048,16.5599997 90.4879976,16.8519968 91.0320003,17.4359997 C91.576003,18.0200026 91.8480003,18.7399954 91.8480003,19.5959997 C91.8480003,20.460004 91.576003,21.1839968 91.0320003,21.7679997 C90.4879976,22.3520026 89.7640048,22.6439997 88.8600003,22.6439997 Z M88.8600003,21.5279997 C89.3800029,21.5279997 89.7899988,21.3420016 90.0900003,20.9699997 C90.3900018,20.5979979 90.5400003,20.1400024 90.5400003,19.5959997 C90.5400003,19.059997 90.3900018,18.6060016 90.0900003,18.2339997 C89.7899988,17.8619979 89.3800029,17.6759997 88.8600003,17.6759997 C88.3479977,17.6759997 87.9420018,17.8619979 87.6420003,18.2339997 C87.3419988,18.6060016 87.1920003,19.059997 87.1920003,19.5959997 C87.1920003,20.1400024 87.3419988,20.5979979 87.6420003,20.9699997 C87.9420018,21.3420016 88.3479977,21.5279997 88.8600003,21.5279997 Z M94.3000003,22.4999997 L93.0400003,22.4999997 L93.0400003,16.7039997 L94.3000003,16.7039997 L94.3000003,17.5559997 C94.5240014,17.2679983 94.8039986,17.0320006 95.1400003,16.8479997 C95.476002,16.6639988 95.8239985,16.5719997 96.1840003,16.5719997 L96.1840003,17.8199997 C96.0719998,17.7959996 95.9400011,17.7839997 95.7880003,17.7839997 C95.523999,17.7839997 95.2420018,17.8619989 94.9420003,18.0179997 C94.6419988,18.1740005 94.428001,18.3519987 94.3000003,18.5519997 L94.3000003,22.4999997 Z M102.464,22.4999997 L101.204,22.4999997 L101.204,21.7079997 C100.723998,22.3320028 100.104004,22.6439997 99.3440003,22.6439997 C98.5839965,22.6439997 97.9640027,22.3720024 97.4840003,21.8279997 C97.0039979,21.283997 96.7640003,20.5440044 96.7640003,19.6079997 C96.7640003,18.6799951 97.0039979,17.9400025 97.4840003,17.3879997 C97.9640027,16.835997 98.5839965,16.5599997 99.3440003,16.5599997 C100.104004,16.5599997 100.723998,16.8759966 101.204,17.5079997 L101.204,14.4959997 L102.464,14.4959997 L102.464,22.4999997 Z M99.7040003,21.5279997 C100.000002,21.5279997 100.287999,21.4560004 100.568,21.3119997 C100.848002,21.167999 101.06,20.9840008 101.204,20.7599997 L101.204,18.4559997 C101.06,18.2319986 100.848002,18.0460005 100.568,17.8979997 C100.287999,17.749999 100.000002,17.6759997 99.7040003,17.6759997 C99.2079979,17.6759997 98.8120018,17.8559979 98.5160003,18.2159997 C98.2199989,18.5760015 98.0720003,19.0399969 98.0720003,19.6079997 C98.0720003,20.1760026 98.2199989,20.6379979 98.5160003,20.9939997 C98.8120018,21.3500015 99.2079979,21.5279997 99.7040003,21.5279997 Z" id="Brand.link/Keyword" fill="#2180C1"></path>
                                    </g>
                                    <circle id="Avatar" fill="#C5CFD6" cx="21" cy="25.5" r="12"></circle>
                                </g>
                            </g>
                        </g>
                        <g id="Group" transform="translate(164.000000, 0.000000)">
                            <polygon id="Fill-35" fill="#C5CFD6" points="25.6778689 64.429918 128.5 2.13162821e-14 36.1516393 73.2504098 35.857377 73.8643443 25.7598361 94.7303279"></polygon>
                            <polyline id="Fill-36" fill="#AFB9C5" points="25.6795082 95.072541 35.8356557 73.5860656 128.182787 0.354098361 25.6795082 95.072541"></polyline>
                            <polyline id="Fill-38" fill="#DDE3E9" points="128.182787 0.354098361 127.211885 0.963114754 35.8610656 73.4504098 35.7561475 73.5139344 65.1983607 99.9590164 128.182787 0.354098361"></polyline>
                            <polyline id="Fill-39" fill="#DDE3E9" points="128.410246 0.0360655738 0.383606557 41.7418033 25.5045082 64.3057377 127.211885 0.963114754 128.410246 0.0360655738"></polyline>
                        </g>
                        <g id="Group-Copy" transform="translate(489.000000, 108.000000)">
                            <polygon id="Fill-35" fill="#C5CFD6" points="12.8389344 32.214959 63 0.428739748 35.560041 22.7502049 18.0758197 36.6252049 17.9286885 36.9321721 12.879918 47.3651639"></polygon>
                            <polyline id="Fill-36" fill="#AFB9C5" points="12.8397541 47.5362705 17.9178279 36.7930328 64.0913934 0.17704918 12.8397541 47.5362705"></polyline>
                            <polyline id="Fill-38" fill="#DDE3E9" points="64.0913934 0.17704918 63.6059426 0.481557377 17.9305328 36.7252049 17.8780738 36.7569672 32.5991803 49.9795082 64.0913934 0.17704918"></polyline>
                            <polyline id="Fill-39" fill="#DDE3E9" points="64.205123 0.0180327869 0.191803279 20.8709016 12.7522541 32.1528689 63.6059426 0.481557377 64.205123 0.0180327869"></polyline>
                        </g>
                        <g id="Big-Leaf-Plant" transform="translate(426.911937, 180.998043)">
                            <g id="Big-Ass-Leaf" transform="translate(22.000000, 0.000000)">
                                <path d="M25.2579539,1.17309307 C28.1225306,0.823121436 31.1799041,0.946659994 33.8438766,2.07736611 C39.5085416,4.48200834 41.1187317,11.1741436 41.0410516,16.6135182 C40.9573065,22.4680411 39.714051,28.8626602 44.1651162,33.5797909 C46.2111822,35.7484553 48.7563294,37.4081152 50.7654292,39.6166003 C52.9121851,41.9766643 54.5966293,44.6770468 55.8438343,47.5768289 C58.1338507,52.9031791 59.2578307,59.1668975 57.163736,64.7542738 C55.3199224,69.6736307 50.6810935,74.1137719 51.6834319,79.7075568 C52.728959,85.5429164 58.61221,90.0040977 62.290444,94.3505245 C66.4531656,99.2693182 70.2859018,105.555987 70.9155339,112.006469 C71.5192882,118.188324 68.8284074,124.440381 64.698769,129.113358 C56.447741,138.450738 44.0451661,143.028231 31.539564,142.999869 C26.2300259,142.987569 20.2185507,142.747768 15.6365623,139.894514 C14.2204324,139.012594 13.4733329,138.02316 12.6314834,136.647706 C11.8766749,135.414323 10.8795787,134.61206 9.72545995,133.739319 C7.18986484,131.822394 5.35871537,129.238844 4.19012177,126.346829 C-0.347779789,115.114023 3.27916675,101.217665 9.6312018,91.2428455 C11.1363537,88.8796069 12.3686453,86.6054629 11.6374364,83.7886216 C10.8743978,80.8481806 8.99901449,78.1960629 7.34025921,75.6685039 C5.70114537,73.1704875 3.82987864,70.7874137 2.54875756,68.0865102 C1.20699289,65.2571214 0.829162714,62.2942757 1.0662375,59.1977452 C1.51180331,53.3811147 4.02273241,48.0134805 7.57766153,43.3356252 C11.0017161,38.8298272 15.0221277,34.5184764 15.0311362,28.6145236 C15.0410288,22.3571379 10.8577315,16.7908073 12.6398779,10.4289791 C13.3778032,7.79466143 14.8599543,5.09183557 17.2485499,3.51252303 C19.5392578,1.99784616 22.5638536,1.50223723 25.2579539,1.17309307 Z" id="leaf" fill="#DDE3E9"></path>
                                <path d="M23.3861597,11.1764309 C23.4398778,10.3360403 24.436749,9.83200515 25.2215077,10.0513011 C26.2544664,10.3400972 26.2346007,11.3052716 26.2073293,12.1651664 C26.1237304,14.8082784 26.5062963,17.3769517 27.1416559,19.9415199 C28.4621824,25.2735426 30.9026929,30.1861254 32.8361895,35.3079558 C34.7680009,40.4254986 35.6748339,45.7092068 34.5415523,51.1242976 C33.4732058,56.2299732 31.7948008,61.2033156 30.7014513,66.3154357 C29.7377524,70.8211129 28.7123306,75.5726024 30.1799208,80.0668063 C31.5921035,84.3928044 34.714245,87.9158566 36.9624576,91.8252937 C41.6165172,99.9180775 43.681267,108.896054 43.9574365,118.135184 C44.0854233,122.425481 43.970168,126.755229 42.9748682,130.963076 C42.4020068,133.385966 41.6321776,136.660394 39.5559237,138.333163 C38.5985099,139.104565 36.9610282,139.371304 36.1552196,138.228946 C35.3986826,137.157504 36.0623713,135.498805 36.3025457,134.356816 C37.3426754,129.413332 37.551926,124.361287 37.302904,119.341696 C37.061891,114.479563 36.4874289,109.625549 34.9571817,104.98201 C33.536907,100.672738 31.379247,96.8021749 28.8398113,93.0324782 C26.2521442,89.1908938 23.562037,85.3411131 22.4928221,80.7892312 C21.4064684,76.1661343 22.2890218,71.4619848 23.4691168,66.9271792 C24.717096,62.1306341 26.3517536,57.4716876 28.0416981,52.8051023 C29.688607,48.2578629 30.2723555,43.9553657 29.3631928,39.1961513 C27.5671855,29.7935298 22.7598022,20.9681166 23.3861597,11.1764309 Z" id="middle-thing" fill="#C5CFD6"></path>
                            </g>
                            <g id="Big-Ass-Leaf" transform="translate(32.000000, 11.000000)">
                                <path d="M90.8923323,1.58227349 C94.4371815,2.65860484 97.957883,4.39521888 100.484813,7.11827966 C105.857908,12.908958 104.209295,21.6609092 101.243138,28.053245 C98.0504357,34.9333908 93.2122671,41.8490652 95.9396345,49.7432112 C97.193196,53.3723397 99.3011711,56.6591395 100.490327,60.3161304 C101.760821,64.2239944 102.30919,68.2938229 102.239325,72.3720051 C102.109984,79.8624039 100.11754,87.8547607 94.7080978,93.373143 C89.9453006,98.2317101 82.1575199,101.069515 80.3765031,108.20631 C78.5184553,115.651265 83.0609213,123.987774 85.0777737,131.041472 C87.360351,139.024107 88.5328812,148.452761 85.8618992,156.408818 C83.3025511,164.033728 76.8418128,170.027718 69.5281945,173.405772 C54.9151643,180.156033 37.9486721,179.117398 23.2958182,172.578162 C17.0747521,169.801475 10.1506305,166.390577 6.28452896,160.632591 C5.08969654,158.852907 4.73639937,157.294118 4.47600508,155.229521 C4.2426077,153.378223 3.49715739,151.910733 2.60478713,150.278208 C0.643995898,146.69213 -0.138196518,142.68415 0.0197662548,138.65605 C0.634485801,123.011122 12.2336238,108.463743 24.9562471,99.9717321 C27.9707605,97.9599181 30.6181436,95.9115216 31.2493822,92.1998602 C31.9086177,88.325468 31.1107853,84.2133878 30.5011993,80.3613088 C29.8990358,76.5543855 28.9638254,72.7626253 28.8887906,68.9019982 C28.8105393,64.857873 29.9334288,61.1573785 31.8482022,57.6186721 C35.4452563,50.9715661 41.2274568,45.9299031 47.869576,42.2471027 C54.2672493,38.6996981 61.2616135,35.6924899 64.392784,28.7150074 C67.7118026,21.3200057 65.7473551,12.5608727 71.200258,5.96432077 C73.4581719,3.232793 76.6252004,0.8074086 80.2615533,0.182273212 C83.7489295,-0.417345716 87.5584437,0.569996664 90.8923323,1.58227349 Z" id="leaf" fill="#DDE3E9"></path>
                                <path d="M83.6512541,13.8108813 C84.1542014,12.8438162 85.5838278,12.76941 86.3866021,13.4404234 C87.4431996,14.3238303 86.9144837,15.4564117 86.4322458,16.4604357 C84.9502268,19.5466855 84.0522837,22.7891134 83.4520845,26.1591764 C82.2036693,33.1656731 82.4845328,40.2624713 82.0629519,47.3413268 C81.6416462,54.4142215 79.9347993,61.1466733 75.7736201,66.9654284 C71.8504189,72.4517974 67.2831774,77.4617029 63.3273648,82.942599 C59.8407636,87.7732777 56.1532511,92.8627051 55.5155862,98.9541078 C54.9012266,104.817274 56.7068601,110.625805 57.2882412,116.433853 C58.4918732,128.456945 56.2042044,140.171178 51.6883608,151.25723 C49.5910773,156.405033 47.1887071,161.472065 43.8211358,165.93348 C41.8823541,168.502498 39.2672836,171.9767 35.9634293,172.869426 C34.4399139,173.281139 32.3854941,172.738768 32.0415379,170.963598 C31.7180544,169.298235 33.362815,167.681804 34.2417421,166.455303 C38.0470052,161.146218 40.9375702,155.273083 43.2752764,149.198186 C45.5398829,143.313954 47.4103318,137.264567 48.0529422,130.963476 C48.6490797,125.115876 48.1532232,119.401324 47.1581268,113.606123 C46.1442823,107.70051 45.0149464,101.731498 46.1486425,95.7805914 C47.2995951,89.7363667 50.7952573,84.6281193 54.5501475,79.8763654 C58.5214952,74.8502305 62.8729252,70.1897143 67.2930034,65.5491295 C71.6002552,61.0273221 74.5361665,56.238113 75.9655983,50.1255641 C78.7899076,38.049307 77.7906897,25.0782485 83.6512541,13.8108813 Z" id="middle-thing" fill="#C5CFD6"></path>
                            </g>
                            <g id="Big-Ass-Leaf" transform="translate(0.000000, 57.000000)">
                                <path d="M13.3059765,-1.56319402e-13 C19.200266,-1.56319402e-13 24.3823319,3.12436119 27.9530894,7.55793367 C32.133,12.74806 32.977213,19.0862362 34.674537,25.2719426 C35.5191207,28.3503093 36.9717453,31.4062221 39.5173606,33.4977007 C41.832736,35.3997692 44.7720948,35.7804002 47.5435009,36.7097048 C53.0822347,38.5668654 57.5546724,43.0406377 59.3209572,48.4994874 C61.4757949,55.1581758 59.1934169,61.8733613 59.5864189,68.6215035 C59.9471652,74.818799 66.0576058,78.6852277 70.9738392,81.6560327 C75.8214826,84.5855514 80.1886254,87.3278329 81.6486651,93.0347628 C83.196945,99.0875562 83.7163751,105.843666 81.5719185,111.822941 C78.0015318,121.778741 67.5524967,126.162697 57.4560511,126.842473 C48.2931709,127.459233 36.7719075,126.490815 29.8906637,119.839732 C25.7730402,115.859585 24.2818569,110.293173 24.4668644,104.75501 C24.581799,101.311223 25.2639913,97.8993066 26.1460214,94.571411 C26.7711171,92.2126578 27.6157008,89.864045 27.8563219,87.4267028 C28.4958771,80.9422138 22.5025956,79.6967428 17.4009839,77.9163603 C10.9183036,75.6535796 6.37987122,71.3797201 3.22399048,65.4254344 C0.285002382,59.8814769 -0.948134291,53.6581058 0.813701389,47.5542477 C1.71352782,44.4374919 3.34559866,41.6097404 5.55901596,39.2046306 C6.53336448,38.1460346 7.90664718,37.2630865 8.78608199,36.1508907 C9.60693725,35.1122136 9.42823254,33.766424 9.1453452,32.5499259 C7.83731568,26.930639 3.7619584,22.2775971 2.30451394,16.6684507 C0.988698535,11.6054427 1.76654602,5.30420703 6.395443,2.0378788 C8.39530446,0.626538178 10.8615778,0.0155729143 13.3059765,-1.56319402e-13 Z" id="leaf" fill="#C5CFD6"></path>
                                <path d="M21.3376913,14.6413767 C27.5850069,21.2960229 29.2831027,30.3249745 29.7814609,39.0761511 C30.0606151,43.9833868 29.7700594,49.1593434 31.2118042,53.919181 C32.4453787,57.993092 35.3373275,61.1072854 38.3182819,64.0505403 C44.3188091,69.9754389 51.0107852,75.9988444 52.7658888,84.5736503 C53.7957065,89.6058303 53.1005796,94.8035164 54.523567,99.7802864 C55.8174594,104.303997 58.0955633,108.748395 60.8665085,112.568434 C63.097535,115.644601 66.0041955,117.999712 68.4430245,120.867276 C69.1870678,121.742611 70.2529291,123.031168 69.9458228,124.266849 C69.5864899,125.714031 67.7431162,126.172161 66.4352477,125.944726 C63.385884,125.414889 60.8190633,122.503142 58.8252627,120.38633 C55.9097752,117.290969 53.432328,113.961654 51.4186666,110.227085 C49.1832266,106.079656 47.3832523,101.678717 46.6141992,97.0257156 C45.8160904,92.1985167 46.2133058,87.1677853 44.3908963,82.535065 C41.3242463,74.7399845 33.8860201,70.1398585 28.5081649,64.0643023 C21.8077295,56.4937595 22.8070205,47.0715048 23.4933204,37.7589838 C23.8703073,32.6413346 24.2450873,26.8620233 21.6591415,22.1894658 C20.6719877,20.4058395 18.4711201,18.7428117 18.0466881,16.7154534 C17.6579319,14.857947 19.7797242,12.9808841 21.3376913,14.6413767 Z" id="middle-thing" fill="#AFB9C5"></path>
                            </g>
                            <path d="M28,181 C28.0003799,219.05849 34.211229,239 67.0000931,239 C99.7889571,239 105.999806,219.05849 106,181 L28,181 Z" id="Base" fill="#DDE3E9"></path>
                        </g>
                    </g>
                </g>
                <g id="Group" transform="translate(0.000000, 91.000000)">
                    <g id="Head/Front/Wavy" transform="translate(77.000000, 0.000000)">
                        <g id="Head" stroke-width="1" transform="translate(51.220588, 29.509615)" fill="#B28B67">
                            <path d="M7.83700978,32.8319476 C3.46627207,27.6832328 0.508065356,21.3734119 1.00238343,14.3030763 C2.42665146,-6.0685292 30.6835327,-1.58703555 36.1800812,8.69480153 C41.6766296,18.9766386 41.0234967,45.057371 33.9196976,46.8950221 C31.0867124,47.6278748 25.0516114,45.8326792 18.9092867,42.1171759 L22.7647059,69.4903846 L0,69.4903846 L7.83700978,32.8319476 Z"></path>
                        </g>
                        <path d="M89.5498044,42.8209581 C89.3243089,41.4882185 88.7732122,40.0082255 88.3285422,38.7473286 C87.7552487,37.1218662 86.8876645,35.6563067 85.9329102,34.2750772 C84.1354146,31.6746294 81.9790959,29.3263609 79.5983108,27.3773629 C75.2495119,23.8173361 69.7137015,21.7638985 64.269912,22.4307549 C61.521337,22.7674265 58.8531701,23.8196065 56.5821928,25.5709153 C54.53039,27.1532395 52.5567903,29.4825337 49.8999423,29.6498965 C47.0090729,29.8318549 44.3591339,27.2711395 42.0406761,25.6896261 C39.4266046,23.9066935 36.64569,22.6075237 33.5904765,22.1025162 C28.4722883,21.2567828 23.6641196,22.9921986 20.1367475,27.2064324 C16.3831449,31.6910089 13.6545617,38.2676202 16.1195769,44.2096475 C16.5777707,45.3142095 17.167234,46.2454082 18.0132095,47.0171906 C18.7890667,47.7249146 19.9740203,48.477885 20.2885968,49.608719 C20.622724,50.810747 19.6246053,52.3614475 19.2375586,53.4460621 C18.6830809,55.000006 18.227827,56.6311445 18.3896722,58.3201787 C18.6555922,61.0939898 20.3925246,63.7419544 22.2266229,65.5651059 C24.0930608,67.4203677 26.3902038,68.4842242 28.8437531,68.974636 C30.4820496,69.3020638 32.1563607,69.4827248 33.8214109,69.3597975 C34.6479826,69.2988203 35.3773883,69.0683722 36.1782353,68.8851164 C36.9570325,68.706888 37.3922946,68.9144698 38.0530521,69.3430936 C41.1225244,71.334581 44.4229311,72.105066 47.9672081,71.8089377 C50.9584773,71.5588666 54.4061764,70.8313574 56.8463488,68.7745143 C59.5562632,66.490142 59.5023148,63.3400891 58.864636,59.9745079 C59.5402404,60.3105309 61.4093243,60.5185991 60.2924309,59.1792104 C59.8499659,58.6487417 59.0139863,58.4328891 58.4462787,58.1208678 C57.7852272,57.7575998 57.1140328,57.2881082 56.6007146,56.6955272 C54.528038,54.3028233 56.6214413,49.4334097 59.2265459,48.6309765 C63.0970122,47.438841 63.9635674,52.9321351 66.7265482,54.353097 C68.3151593,55.1701258 69.9769755,54.0534009 71.167221,52.9131608 C72.761565,51.3856511 73.8481768,49.3620535 74.7863202,47.3027777 C75.5590904,45.6069322 76.2782063,43.8872472 77.0658234,42.1998346 C77.4336133,41.4118349 78.7069129,39.1842233 78.0674701,38.2932435 C80.8397118,37.7384489 83.9274119,38.8945819 86.3149589,40.4107395 C87.3017588,41.037539 88.0540963,41.7285592 88.5804973,42.8350672 C88.6932451,43.0721645 88.9387323,43.7769694 89.2469878,43.8058362 C89.8208693,43.8596777 89.6063988,43.1558459 89.5498044,42.8209581" id="hair" fill="#191847"></path>
                    </g>
                    <g id="Bottom/Sitting/Skinny-Jeans-1" transform="translate(0.000000, 179.000000)">
                        <g id="Objects/Seat/Cube" transform="translate(9.500000, 40.066946)" stroke-width="1">
                            <g id="Seat" transform="translate(52.155172, 0.000000)">
                                <polygon id="Seat-Stuff" fill="#C5CFD6" points="26.1938842 0 99.4525106 0 109.051724 118 0 118"></polygon>
                                <polygon id="Seat-Stuff" fill-opacity="0.1" fill="#000000" points="26.1938842 0 48.72507 0 62.210475 118 0 118"></polygon>
                            </g>
                        </g>
                        <path d="M245.055629,19.8008233 C252.880588,15.0824832 266.009014,21.1445817 266,27.8927143 C265.973031,48.0831113 247.623848,143.24038 246.665813,149.255774 C245.707778,155.271168 235.444818,156.860061 234.847172,149.275488 C233.896217,137.207152 232.12946,95.4290865 233.897172,76.0915678 C234.626847,68.1094463 235.412667,60.5075403 236.186291,53.7255714 C226.557807,71.1861821 211.666867,96.1854705 191.513472,128.723437 L180.572744,123.703999 C189.164157,95.2792908 196.208987,75.2122029 201.707233,63.5027357 C211.121566,43.453285 219.949041,26.2836034 223.664241,20.2357224 C229.508252,10.7224015 239.680689,14.0417402 245.055629,19.8008233 Z" id="Skin" fill="#B28B67"></path>
                        <path d="M198.441889,117.614401 L203.176262,20.8299776 C206.659571,4.09817303 236.341867,11.9054755 236.341682,20.8745548 C236.341262,41.2371413 224.242804,111.562503 224.242679,117.629197 L198.441889,117.614401 Z" id="LegLower" fill="#0D77C0" transform="translate(217.391786, 64.314101) rotate(20.000000) translate(-217.391786, -64.314101) "></path>
                        <g id="Accessories/Shoe/Flat-Sneaker" transform="translate(204.725000, 126.878661) rotate(30.000000) translate(-204.725000, -126.878661) translate(175.750000, 107.799163)" fill="#E4E4E4">
                            <path d="M2.50800092,24.2346094 C1.46988009,27.0203119 0.950819672,29.1089045 0.950819672,30.5003873 C0.950819672,32.2135092 1.23645941,34.7133801 1.80773888,38 C3.79679521,38 21.6727794,38 55.4356915,38 C56.8292918,33.3967819 56.0248249,30.9116526 53.0222906,30.544612 C50.0197563,30.1775714 47.5255,29.8461632 45.5395218,29.5503873 L20.6595211,18.4683207 C20.1550199,18.2436054 19.5638731,18.4704167 19.3391578,18.974918 C19.3353983,18.9833584 19.3317559,18.9918505 19.3282318,19.0003919 L17.7453502,22.8367603 C14.9657887,24.1325195 12.7071064,24.7803992 10.9693034,24.7803992 C9.5745413,24.7803992 7.65482233,24.2244261 5.21014647,23.11248 L5.21014351,23.1124865 C4.20469716,22.6551653 3.01888975,23.0995085 2.56156853,24.1049549 C2.54220197,24.1475333 2.52433511,24.1907781 2.50800092,24.2346094 Z" id="shoe"></path>
                        </g>
                        <g id="Accessories/Shoe/Flat-Sneaker" transform="translate(229.900000, 120.200837)" fill="#E4E4E4">
                            <path d="M2.50800092,24.2346094 C1.46988009,27.0203119 0.950819672,29.1089045 0.950819672,30.5003873 C0.950819672,32.2135092 1.23645941,34.7133801 1.80773888,38 C3.79679521,38 21.6727794,38 55.4356915,38 C56.8292918,33.3967819 56.0248249,30.9116526 53.0222906,30.544612 C50.0197563,30.1775714 47.5255,29.8461632 45.5395218,29.5503873 L20.6595211,18.4683207 C20.1550199,18.2436054 19.5638731,18.4704167 19.3391578,18.974918 C19.3353983,18.9833584 19.3317559,18.9918505 19.3282318,19.0003919 L17.7453502,22.8367603 C14.9657887,24.1325195 12.7071064,24.7803992 10.9693034,24.7803992 C9.5745413,24.7803992 7.65482233,24.2244261 5.21014647,23.11248 L5.21014351,23.1124865 C4.20469716,22.6551653 3.01888975,23.0995085 2.56156853,24.1049549 C2.54220197,24.1475333 2.52433511,24.1907781 2.50800092,24.2346094 Z" id="shoe"></path>
                        </g>
                        <path d="M268.631854,34.7561939 C268.631854,60.1004184 256.64592,119.218523 256.638335,124.799102 L230.85,124.818994 C234.624613,72.0684924 235.963063,45.4091028 234.865349,44.8408248 C233.218777,43.9884078 167.367046,51.4431254 147.61704,51.4431254 C119.137434,51.4431254 107.355991,33.4085797 106.4,-4.40536496e-13 L162.81704,-4.40536496e-13 C174.304056,1.23431657 234.221384,13.3702031 256.473492,17.5420842 C266,19.328138 268.631854,27.7745125 268.631854,34.7561939 Z" id="Leg-and-Butt" fill="#2C96DF"></path>
                    </g>
                    <g id="Body/Lab-Coat" transform="translate(19.000000, 78.000000)">
                        <path d="M180.692211,84.3453682 L209.345917,108.705335 C217.383473,111.496497 224.035416,114.734394 229.301746,118.419027 C230.51736,119.696446 231.918991,122.209089 226.563404,121.416282 C221.207817,120.623475 215.538987,120.031094 214.667598,121.820713 C213.79621,123.610332 216.901059,126.041312 215.225928,128.420957 C214.109174,130.007387 209.668609,125.521732 201.904233,114.963993 L172.860989,100.42878 L180.692211,84.3453682 Z M50.9418561,73.8042438 L67.7542082,76.2526628 C49.7076384,115.516916 40.0326585,136.282128 38.7292683,138.548297 C35.7966403,143.647177 39.2456077,152.528217 40.5938948,157.229627 C33.7800246,159.202763 35.9561441,148.645729 27.340439,151.278855 C19.476423,153.682251 12.9869288,159.130629 5.19834473,152.651906 C4.24078408,151.855386 3.43415661,149.250781 6.47772496,147.733196 C14.0603636,143.95234 25.1934304,137.033856 26.9240285,134.484027 C29.2840083,131.006879 37.2899508,110.780285 50.9418561,73.8042438 Z" id="Skin" fill="#B28B67"></path>
                        <path d="M116.721272,8.75740786 L126.798147,4.40788319 C143.961249,38.4418567 167.941812,70.7262972 205.542141,96.4782628 L198.180581,112.244746 C165.758001,96.7307105 135.336616,85.1371304 121.103497,58.8464711 C116.326495,50.0226462 117.356419,19.7522285 116.721272,8.75740786 Z" id="Coat-Back" fill="#C5CFD6" transform="translate(161.131706, 58.326315) rotate(5.000000) translate(-161.131706, -58.326315) "></path>
                        <path d="M85.4296875,104.705882 C115.271536,107.878788 138.760344,107.878788 155.896112,104.705882 C158.019119,104.312781 158.354051,100.74837 157.369509,98.3292616 C142.037632,60.6574529 131.524037,27.786682 131.524037,1.62069222 C128.71083,3.04293208 123.787453,3.2560725 116.753906,2.26011348 C97.8513555,29.2250073 89.1625261,60.1641377 85.4296875,104.705882 Z" id="Shirt" fill="#323337"></path>
                        <path d="M112.054701,5.05706588e-14 L119.932294,4.57411886e-14 C121.766511,10.8178986 127.551756,157.308774 145.411383,205.229208 L48.7759077,205.229208 C50.8709373,161.330103 67.3972564,108.596555 84.1385688,64.4686584 C69.3351479,78.0529881 56.4327495,101.070634 45.4313736,133.521595 L27.3304959,128.862146 C40.7890919,70.7060573 68.4599797,27.9611147 110.343159,0.62731851 C110.433853,0.417212669 110.524123,0.208104206 110.613963,5.14588372e-14 L111.31109,5.1014748e-14 C111.567679,-0.165143484 111.824797,-0.329714546 112.082442,-0.493713186 L112.054701,5.22359933e-14 Z" id="Coat-Front" fill="#DDE3E9"></path>
                    </g>
                </g>
            </g>
        </g>
    </g>
</svg>